<?xml version="1.0" encoding="utf-8"?>
<!-- Generator: Adobe Illustrator 22.1.0, SVG Export Plug-In . SVG Version: 6.00 Build 0)  -->
<svg version="1.1" id="Layer_1" xmlns="http://www.w3.org/2000/svg" xmlns:xlink="http://www.w3.org/1999/xlink" x="0px" y="0px"
	 viewBox="0 0 400 200" style="enable-background:new 0 0 400 200;" xml:space="preserve">
<style type="text/css">
	.st0{fill:#010101;}
	.st1{fill:#FFFFFF;}
	.st2{fill:#CD202A;}
</style>
<g>
	<path class="st0" d="M3.9,188.5v0.5c0,2.1,1.5,2.9,2.8,2.9c1.6,0,2.9-0.8,2.9-2.8c0-3.6-7.3-3.1-7.3-8c0-2.9,2.1-4.4,4.7-4.4
		c3.1,0,4.7,1.5,4.6,4.7H9.4c0-1.8-0.7-2.9-2.6-2.9c-1.1,0-2.4,0.6-2.4,2.4c0,3.6,7.3,2.9,7.3,8.1c0,3.4-2.4,4.6-5,4.6
		c-4.7,0-4.7-3.7-4.7-5.2L3.9,188.5L3.9,188.5z M18.9,177.1H21l3.1,14l3.3-14h2.8l2.9,14l3.3-14h2.3l-4.4,16.3h-2.4l-3.1-14.2
		l-3.3,14.2h-2.6L18.9,177.1L18.9,177.1z M48.5,193.4h-2.1v-16.3h2.1V193.4z M59.8,188.5v0.5c0,2.1,1.3,2.9,2.6,2.9
		c1.6,0,2.9-0.8,2.9-2.8c0-3.6-7.2-3.1-7.2-8c0-2.9,2-4.4,4.7-4.4c2.9,0,4.6,1.5,4.4,4.7h-2.1c0-1.8-0.5-2.9-2.4-2.9
		c-1.3,0-2.6,0.6-2.6,2.4c0,3.6,7.3,2.9,7.3,8.1c0,3.4-2.3,4.6-5,4.6c-4.7,0-4.7-3.7-4.7-5.2L59.8,188.5L59.8,188.5L59.8,188.5z
		 M77.8,188.5v0.5c0,2.1,1.5,2.9,2.8,2.9c1.6,0,2.9-0.8,2.9-2.8c0-3.6-7.3-3.1-7.3-8c0-2.9,2.1-4.4,4.7-4.4c2.9,0,4.7,1.5,4.6,4.7
		h-2.1c0-1.8-0.7-2.9-2.6-2.9c-1.1,0-2.4,0.6-2.4,2.4c0,3.6,7.3,2.9,7.3,8.1c0,3.4-2.4,4.6-5,4.6c-4.9,0-4.9-3.7-4.7-5.2L77.8,188.5
		L77.8,188.5L77.8,188.5z M103.4,177.1h2.3l3.1,14l3.3-14h2.6l2.9,14h0.2l3.3-14h2.1l-4.2,16.3h-2.6l-2.9-14.2h-0.2l-3.3,14.2h-2.4
		L103.4,177.1L103.4,177.1z M137.5,187.7h-5l2.4-8.6L137.5,187.7z M128.5,193.4h2.1l1.1-3.9h6.4l1.1,3.9h2.3l-5.2-16.3h-2.6
		L128.5,193.4L128.5,193.4z M156.8,177.1v1.8h-4.2v14.5h-2.1v-14.5h-4.2v-1.8H156.8z M171.8,181.5c0-0.8,0-1.8-0.5-2.3
		c-0.5-0.5-1.5-0.6-1.8-0.6c-1.8,0-2.4,1-2.4,1.1c-0.2,0.3-0.5,0.6-0.5,3.4v4.4c0,3.9,1.3,4.4,2.9,4.4c0.7,0,2.4-0.2,2.4-3.4h2.1
		c0.2,5.2-3.4,5.2-4.6,5.2c-2,0-5-0.2-5-6.5v-4.6c0-4.6,2-5.9,5.2-5.9s4.4,1.6,4.2,4.7L171.8,181.5L171.8,181.5L171.8,181.5z
		 M182.9,193.4v-16.3h2.1v7h5.7v-7h2.1v16.3h-2.1v-7.5H185v7.5H182.9z M202.3,193.4v-16.3h8.3v1.8h-6.2v5.2h5.7v1.8h-5.7v5.7h6.4
		v1.8L202.3,193.4L202.3,193.4z M220.7,188.5v0.5c0,2.1,1.5,2.9,2.8,2.9c1.6,0,2.9-0.8,2.9-2.8c0-3.6-7.3-3.1-7.3-8
		c0-2.9,2.1-4.4,4.7-4.4c3.1,0,4.7,1.5,4.6,4.7h-2.1c0-1.8-0.7-2.9-2.6-2.9c-1.1,0-2.4,0.6-2.4,2.4c0,3.6,7.3,2.9,7.3,8.1
		c0,3.4-2.4,4.6-5,4.6c-4.7,0-4.7-3.7-4.7-5.2L220.7,188.5L220.7,188.5L220.7,188.5z M249.7,188.5v0.5c0,2.1,1.3,2.9,2.6,2.9
		c1.6,0,2.9-0.8,2.9-2.8c0-3.6-7.3-3.1-7.3-8c0-2.9,2.1-4.4,4.9-4.4c2.9,0,4.6,1.5,4.4,4.7h-2.1c0-1.8-0.5-2.9-2.4-2.9
		c-1.3,0-2.6,0.6-2.6,2.4c0,3.6,7.3,2.9,7.3,8.1c0,3.4-2.4,4.6-5,4.6c-4.7,0-4.7-3.7-4.7-5.2L249.7,188.5L249.7,188.5L249.7,188.5z
		 M268.6,193.4h-2.1v-16.3h2.1V193.4z M289.4,177.1v16.3h-2.9l-6.4-14.2v14.2h-2v-16.3h2.9l6.3,13.8v-13.8L289.4,177.1L289.4,177.1z
		 M305.9,181.5c0.2-0.8,0-1.8-0.3-2.3c-0.5-0.5-1.5-0.6-2-0.6c-1.6,0-2.3,1-2.4,1.1c0,0.3-0.3,0.6-0.3,3.4v4.4
		c0,3.9,1.3,4.4,2.8,4.4c0.6,0,2.6-0.2,2.6-3.4h2.1c0.2,5.2-3.6,5.2-4.6,5.2c-2,0-5-0.2-5-6.5v-4.6c0-4.6,2-5.9,5.2-5.9
		c3.1,0,4.4,1.6,4.2,4.7L305.9,181.5L305.9,181.5L305.9,181.5z M317,193.4v-16.3h8.5v1.8h-6.4v5.2h5.9v1.8h-5.9v5.7h6.4v1.8
		L317,193.4L317,193.4z M349.2,193.4h-2v-13.4l-2.4,1.5v-2c0.6-0.2,2.1-1.3,2.6-1.8h1.8L349.2,193.4L349.2,193.4z M363.4,191.9
		c-1.5,0-2.1-1.5-2.1-2.8c0-1.5,0.2-3.3,2.1-3.3s2.1,1.8,2.1,3.3C365.5,190.5,365,191.9,363.4,191.9z M363.4,184.1
		c-1.5,0-2-1.6-2-2.8c0-1.1,0.6-2.3,2-2.3s2,1.1,2,2.3C365.3,182.5,365,184.1,363.4,184.1z M364.7,185.1c1.8-0.3,2.8-2,2.8-3.7
		c0-2.4-1.6-3.9-4.1-3.9s-3.9,1.5-3.9,3.9c0,1.8,0.8,3.4,2.6,3.7c-2.3,0.2-2.8,2-2.8,4.1c0,2.8,1.5,4.6,4.1,4.6
		c2.8,0,4.2-1.8,4.2-4.6C367.6,187.1,367,185.3,364.7,185.1L364.7,185.1z M382.8,177.8v1.8h-5.2v4.6c0.3-0.7,1.5-1.1,2.4-1.1
		c2.3,0,3.3,1.6,3.3,5.2c0,2.4-0.3,5.5-4.2,5.5c-3.3,0-3.7-1.8-3.7-3.9h2c0,1.1,0.5,2.3,2,2.3c2,0,2-1.8,2-3.4c0-2.3,0-4.1-2-4.1
		c-1.1,0-1.6,0.8-2,2h-1.8v-8.8L382.8,177.8L382.8,177.8L382.8,177.8z M393.5,184.3c2,0.2,3.3-0.7,3.3-2.6c0-1.5-0.6-2.4-2.1-2.4
		c-1.8,0-2.1,1.3-2,2.6h-2.1c-0.2-2.8,1.1-4.4,4.1-4.4c2.6,0,4.1,1.5,4.1,4.1c0,2.9-2.1,3.4-2.9,3.6v0.2c2.4,0.3,3.1,1.6,3.1,3.9
		c0,3.1-1.6,4.6-4.6,4.6c-4.4,0-4.1-3.7-4.1-4.7h2.1c0,1.6,0.3,2.9,2.1,2.9c1.8,0,2.4-1.1,2.4-2.8c0-2.6-1-3.1-3.4-3.1L393.5,184.3
		L393.5,184.3L393.5,184.3z"/>
	<path class="st0" d="M197.9,71.1V12.4h-59.8v58.6H197.9L197.9,71.1z"/>
	<path class="st1" d="M190.4,20.3h-44.3v9.9h15.6v33.7h13.4V30.2h15.3L190.4,20.3L190.4,20.3z"/>
	<path class="st0" d="M74.4,89.2H1.8v15.1h26.1v50.2h21v-50.2h25.6V89.2z M102.1,154.5V89.2H80.9v65.3H102.1z M399.4,89.2h-72.6
		v15.1H353v50.2h20.8v-50.2h25.6L399.4,89.2L399.4,89.2z M253.6,121.6c0-22.6,16.9-33.9,37.8-33.9c20.9,0,37.8,12.7,37.8,33.9
		c0,21.5-16.9,34-37.8,34C270.5,155.6,253.6,145.9,253.6,121.6L253.6,121.6z M291.4,144.1c11.1,0,16.3-10.1,16.3-22.5
		c0-12.4-6-22.3-16.3-22.3c-11.9,0-16.6,9.9-16.6,22.3C274.8,134,279.7,144.1,291.4,144.1z M246.3,110.2h-18.9
		c-0.8-3.3-2.4-6.2-5.4-8.1c-3.7-2.4-8-2.6-12.1-1.6c-3.3,0.8-6.7,3.6-5.4,7.2c0.8,2.3,3.1,3.3,5.4,3.9c10.4,2.8,21,3.4,30.5,9.1
		c4.7,2.9,7.3,7.8,7.3,13c-0.3,22.2-27.5,24.9-45.3,21.3c-11.4-2.4-22.3-10.8-21.3-23.3h19.7c1.3,2.8,0.8,5.5,2.6,8
		c1,1.5,2.1,2.6,3.6,3.4c1.1,0.5,2.3,1.3,3.4,1.6c3.4,0.8,6.7,1,9.9-0.2c2.3-0.7,4.2-2.3,5.4-4.6c0.5-1.3,0.5-2.8,0-4.1
		c-0.2-0.8-0.7-1.5-1.1-2.1c-1.5-2.4-4.2-3.1-6.8-3.9c-11.6-3.6-26.7-2.1-33.1-14.3c-1.8-3.6-2-7.7-1-11.7c0.7-2.8,2.6-5.2,4.6-7.2
		c2-1.8,4.1-3.4,6.5-4.6c12.2-5.5,26.4-5,38.3,0.2C240.1,95.5,246,102,246.3,110.2L246.3,110.2z M174.3,110h-18.7
		c-1-3.4-2.6-6.4-5.5-8.3c-3.7-2.3-8-2.6-12.1-1.5c-3.3,0.8-6.7,3.4-5.4,7.2c0.8,2.1,3.1,3.1,5.4,3.7c10.4,2.8,21,3.4,30.6,9.1
		c4.7,2.9,7.2,7.8,7.2,13c-0.3,22.3-27.5,24.9-45.1,21.3c-11.6-2.3-22.3-10.8-21.5-23.3H129c1.1,2.8,0.7,5.5,2.4,8
		c1.1,1.5,2.3,2.8,3.6,3.4c1.1,0.7,2.3,1.3,3.6,1.6c3.3,0.8,6.7,1,9.8,0c2.3-0.8,4.4-2.4,5.4-4.7c0.7-1.1,0.5-2.8,0.2-4.1
		c-0.3-0.8-0.8-1.5-1.1-2.1c-1.6-2.4-4.4-2.9-7-3.7c-11.4-3.7-26.7-2.3-33.1-14.3c-1.8-3.6-2-7.7-1-11.7c0.7-2.9,2.6-5.4,4.6-7.2
		s4.1-3.6,6.5-4.7c12.2-5.5,26.4-4.9,38.3,0.3C168.3,95.2,174.1,101.7,174.3,110L174.3,110z"/>
	<path class="st2" d="M264.7,71.2V12.1h-59.8v59.1H264.7z"/>
	<path class="st1" d="M256.7,35.1h-15.3V19.9h-13v15.1H213v13h15.3v15.1h13V48.1h15.3V35.1z"/>
</g>
</svg>
