<?xml version="1.0" encoding="utf-8"?>
<!-- Generator: Adobe Illustrator 22.1.0, SVG Export Plug-In . SVG Version: 6.00 Build 0)  -->
<svg version="1.1" id="Layer_1" xmlns="http://www.w3.org/2000/svg" xmlns:xlink="http://www.w3.org/1999/xlink" x="0px" y="0px"
	 viewBox="0 0 400 200" style="enable-background:new 0 0 400 200;" xml:space="preserve">
<style type="text/css">
	.st0{fill:#010101;}
</style>
<path class="st0" d="M99.2,118.5c-4.5,0-6.5-1-6.5-6.3V68.5c0-5.3,1.6-5.9,6.1-5.9h2.8v-5.4h-29v5.4h3.1c4.1,0,6,1.4,6,5.9v43.7
	c0,4.5-2.4,6.3-6.5,6.3h-2.8v5.4h29.3v-5.4H99.2L99.2,118.5z M197.3,118.5c-4.5,0-6.5-1-6.5-6.3V68.5c0-5.3,1.6-5.9,6.1-5.9h2.8
	v-5.4h-29v5.4h3.1c4.1,0,6,1.4,6,5.9v43.7c0,4.5-2.4,6.3-6.5,6.3h-2.8v5.4h29.3v-5.4H197.3L197.3,118.5z M108,57.1v17.6h5v-3.6
	c0-4.5,1.6-8.5,7.6-8.5h10.2v49.6c0,4.5-2.7,6.3-6.8,6.3h-3v5.4h30.5v-5.4h-3c-4.1,0-6.8-1.9-6.8-6.3V62.6H152c6,0,7.6,4.1,7.6,8.5
	v3.6h5V57.1H108L108,57.1z M254.8,105.7v1.2c0,5.6-1.6,11.5-13.4,11.5h-20.5l38.3-56v-5.4h-50.6v18.1h5.1v-2.2
	c0-5.7,2.7-10.5,10.4-10.5c4.7,0,21.5,0.1,21.5,0.1l-38.2,56v5.4h52.4v-18.3L254.8,105.7L254.8,105.7z M316.7,105.7v1.8
	c0,6-2.9,11-10.3,11h-19.9V92.4h12c4.8,0,5.9,4,5.9,6.9v2.8h5.2V77h-5.2v2.2c0,2.9-1.1,6.9-5.9,6.9h-12V62.6h18.9
	c9.5,0,9.7,7.9,9.7,10.8v1.4h5V57.1h-53v5.4h1.2c4.6,0,6.9,0.5,6.9,4.7v45.8c0,4.8-3.2,5.5-6.1,5.5h-1.7v5.4h54.1v-18.3L316.7,105.7
	L316.7,105.7z M371.3,57.1v5.4h1.5c5.3,0,7.1,1.8,7.1,6.3v37l-33.3-48.8h-17.6v5.4h1.6c3.2,0,5.8,1.3,5.8,6.5v43.7
	c0,4.5-3.2,5.8-5.6,5.8h-2.3v5.4h22.8v-5.4h-2.2c-2.4,0-6.1-0.6-6.1-5.8V71.8l35.6,52h7.8V68.8c0-4.5,1.9-6.3,7.1-6.3h1.4v-5.4
	L371.3,57.1L371.3,57.1L371.3,57.1z M43.3,120.4c-13.2,0-23.8-12.7-23.8-29.8C19.5,72,27.2,60,42.1,60c12.4,0,17.3,6.4,19.2,14.3
	h4.7c-0.6-4.7-1.4-12.9-1.4-14.8c-4.2-0.8-11.9-4.8-23.4-4.8c-20.4,0-35.1,13.9-35.1,35.9c0,21.5,17,35.1,34.9,35.1
	c8.3,0,16.5-1.9,23.5-7.1c0.3-1.7,1.5-6.7,2.6-10.8H62C58.1,116.9,51,120.4,43.3,120.4L43.3,120.4z"/>
</svg>
