<?xml version="1.0" encoding="utf-8"?>
<!-- Generator: Adobe Illustrator 22.1.0, SVG Export Plug-In . SVG Version: 6.00 Build 0)  -->
<svg version="1.1" id="Layer_1" xmlns="http://www.w3.org/2000/svg" xmlns:xlink="http://www.w3.org/1999/xlink" x="0px" y="0px"
	 viewBox="0 0 400 200" style="enable-background:new 0 0 400 200;" xml:space="preserve">
<style type="text/css">
	.st0{fill:#010101;}
</style>
<g id="layer1_1_" transform="translate(-79.31097,-665.20007)">
	<path id="path136" class="st0" d="M168.9,772.1c-1.9,3.3-4.5,5.4-9.2,5.4c-6.6,0-11.7-5.4-11.7-12c0-6.6,5.1-12,11.7-12
		c4.9,0,7.8,2.4,9.6,6.1h7c-1.9-7.3-8.6-12.5-16.7-12.5c-10.2,0-18,8.2-18,18.5c0,10.2,7.8,18.5,18,18.5c7.9,0,14.4-4.7,16.5-11.8
		L168.9,772.1L168.9,772.1z M461,783.9c-6.1,0-12.4-2.5-15.7-7.4l5.4-3.9c2.6,3.5,6.3,5.2,10.3,5.2c3.5,0,8-1.1,8-4.5
		c0-3.9-6.5-4.5-9.5-5.2c-5.8-1.4-12.3-2.7-12.3-10.2c0-7.4,7.1-10.9,13.6-10.9c6,0,11.1,2.2,14.7,7l-5.3,4c-2.4-3-5.2-4.8-9.5-4.8
		c-3.8,0-6.7,1.4-6.7,3.8c0,4,5.7,4,10.6,5.2c5.2,1.3,11.2,2.8,11.2,10.2C475.9,781,468,783.9,461,783.9 M434.6,759.7
		c0,3-2.4,5.4-5.4,5.4h-10.5v-10.8h10.5C432.2,754.3,434.6,756.7,434.6,759.7 M442.2,783.1l-7.5-12.9c3.7-2,6.3-5.9,6.3-10.5
		c0-6.5-5.3-11.8-11.8-11.8h-17v35.2h6.4v-11.6h9.4l6.6,11.6H442.2L442.2,783.1z M398.3,765.5c0,6.6-5.4,12-12,12
		c-6.6,0-12-5.4-12-12c0-6.6,5.4-12,12-12C393,753.4,398.3,758.8,398.3,765.5 M404.8,765.5c0-10.2-8.3-18.5-18.5-18.5
		c-10.2,0-18.5,8.2-18.5,18.5c0,10.2,8.2,18.5,18.5,18.5C396.5,783.9,404.8,775.7,404.8,765.5 M359.7,783.1l-11.6-16.2l-4.5,4.6
		v11.6h-6.4v-35.2h6.4v14.7l14.3-14.7h8.5l-13.7,14.3l15,20.9L359.7,783.1L359.7,783.1z M290.6,783.1v-35.2h6.4v28.8h15.1v6.4
		L290.6,783.1L290.6,783.1z M256.9,783.1v-35.2h24.5v6.4h-18v8h18v6.4h-18v7.9h18v6.4L256.9,783.1L256.9,783.1z M239.2,768.7h-9.6
		l4.8-12.1L239.2,768.7z M251.9,783.1l-14.1-35.2h-6.6l-14.1,35.2h7l3.2-8h14.6l3.2,8H251.9z M205.5,783.1v-14.4h-16.4v14.4h-6.4
		v-35.2h6.4v14.4h16.4v-14.4h6.4v35.2H205.5z M129.2,747.8h6.4v35.2h-6.4V747.8z M114.5,783.1v-25.4l-8.8,25.4h-7l-8.7-25.4v25.4
		h-6.4v-35.2h9.6l9.2,25.4l9.2-25.4h9.6v35.2H114.5z"/>
</g>
</svg>
