<?xml version="1.0" encoding="utf-8"?>
<!-- Generator: Adobe Illustrator 22.1.0, SVG Export Plug-In . SVG Version: 6.00 Build 0)  -->
<svg version="1.1" id="Layer_1" xmlns="http://www.w3.org/2000/svg" xmlns:xlink="http://www.w3.org/1999/xlink" x="0px" y="0px"
	 viewBox="0 0 1000 300" style="enable-background:new 0 0 1000 300;" xml:space="preserve">
<style type="text/css">
	.st0{fill:#FFFFFF;}
	.st1{fill:#1C1B55;}
	.st2{fill:#CB3532;}
</style>
<g>
	<path class="st0" d="M446.1,176.6h-40.9V126h40.9V176.6z"/>
	<path class="st1" d="M405.2,126h40.9v11.4h-40.9V126z M405.2,165.2h40.9v11.4h-40.9V165.2z"/>
	<path class="st2" d="M446.1,176.6H487V126h-40.9V176.6z"/>
	<path class="st1" d="M487,126h-40.9v11.4H487V126z M487,165.2h-40.9v11.4H487V165.2z"/>
	<path class="st1" d="M22.7,176.9v-45.1H5.9v-6.1h40.5v6.1H29.5v45.1H22.7z M90.8,135.6c3.3-3.2,7.7-5,12.3-4.9
		c3.4,0,6.4,0.9,9.1,2.6c2.7,1.7,4.8,4.1,6.2,7.2c1.4,3.1,2.1,6.7,2.1,10.9c0,6.6-1.6,11.7-4.9,15.3c-3.3,3.6-7.5,5.4-12.6,5.4
		c-5,0-9.1-1.8-12.5-5.3c-3.3-3.6-5-8.4-5-14.6C85.6,144.4,87.3,138.9,90.8,135.6L90.8,135.6z M81.6,164.8c1.9,3.9,4.9,7.3,8.6,9.5
		c3.8,2.3,8.1,3.5,12.9,3.5c4.3,0,8.6-1.1,12.4-3.2c3.8-2.1,6.8-5.2,8.9-9.3c2.1-4.1,3.1-8.7,3.1-13.9c0-5.1-1-9.7-3-13.7
		c-1.9-3.9-4.9-7.2-8.7-9.4c-3.8-2.3-8-3.4-12.8-3.4c-7.2,0-13.1,2.4-17.6,7.2c-4.6,4.8-6.8,11.5-6.8,19.9
		C78.6,156.5,79.6,160.7,81.6,164.8L81.6,164.8z M164.7,176.9v-51.2h10.1l12.1,36.2c1.1,3.4,1.9,5.9,2.4,7.6
		c0.6-1.9,1.5-4.6,2.7-8.2l12.4-35.6h9v51.2H207v-42.8l-15,42.8H186l-14.8-43.6v43.6H164.7L164.7,176.9z M252.8,176.9v-51.2H263
		l12.1,36.2c1.1,3.4,1.9,5.9,2.4,7.6c0.6-1.9,1.5-4.6,2.8-8.2l12.4-35.6h9v51.2h-6.5v-42.8l-15,42.8h-6.1l-14.8-43.6v43.6H252.8
		L252.8,176.9z M355.6,176.9v-21.7l-19.7-29.5h8.2l10.1,15.5c1.9,2.8,3.6,5.7,5.3,8.6c1.6-2.7,3.4-5.7,5.6-9.1l9.9-15.1h7.9
		l-20.4,29.5v21.7H355.6z M520.2,176.9v-51.2h6.8v21h26.5v-21h6.8v51.2h-6.8v-24.1H527v24.1H520.2z M594.2,176.9v-51.2h6.8v51.2
		H594.2z M634,176.9v-51.2h6.8v45.1H666v6H634L634,176.9z M695.8,176.9v-51.2h34.6v6.1h-27.8v15.8h24.1v6h-24.1v23.3H695.8z
		 M761.8,176.9v-51.2h6.8v51.2H761.8z M825.8,156.8v-6h21.7v19c-3.1,2.5-6.6,4.5-10.3,6c-3.5,1.3-7.2,2-10.9,2
		c-5,0-9.6-1.1-13.7-3.2c-4-2.1-7.3-5.3-9.3-9.4c-2.1-4.1-3.1-8.6-3.1-13.7c0-5,1-9.6,3.1-14s5.1-7.5,9-9.6
		c3.9-2.1,8.4-3.1,13.5-3.1c3.7,0,7,0.6,10,1.8c3,1.2,5.3,2.9,7,5c1.7,2.1,3,4.9,3.9,8.4l-6.1,1.7c-0.8-2.6-1.7-4.7-2.9-6.2
		c-1.1-1.5-2.8-2.7-4.9-3.6c-2.2-0.9-4.6-1.4-7-1.3c-3.1,0-5.8,0.5-8,1.4c-2.3,0.9-4.1,2.2-5.5,3.7c-1.4,1.5-2.5,3.2-3.2,5.1
		c-1.3,3.3-2,6.8-1.9,10.3c0,4.6,0.8,8.4,2.4,11.5c1.6,3.1,3.8,5.4,6.9,6.9c3,1.5,6.2,2.3,9.6,2.2c2.9,0,5.8-0.6,8.6-1.7
		c2.8-1.1,4.9-2.3,6.3-3.6v-9.6H825.8z M879.2,176.9v-51.2h36.8v6.1H886v15.6h28.1v6.1H886v17.4h31.3v6L879.2,176.9L879.2,176.9z
		 M955,131.4h16.2c3.8,0,6.6,0.8,8.3,2.3c1.8,1.6,2.6,3.6,2.6,6c0,1.7-0.5,3.2-1.4,4.6c-0.9,1.4-2.3,2.5-4,3.1c-1.8,0.6-4.2,1-7.3,1
		H955L955,131.4L955,131.4z M955,176.9v-22.7h7.9c1.7,0,3,0.1,3.8,0.2c1.1,0.3,2.1,0.7,3.1,1.4c1,0.6,2.2,1.8,3.4,3.4
		c1.3,1.6,2.9,4,4.9,7l6.8,10.6h8.5l-8.9-13.9c-1.6-2.5-3.5-4.8-5.6-6.8c-0.9-0.8-2.3-1.7-4.1-2.6c4.9-0.7,8.5-2.3,10.9-4.8
		c2.4-2.5,3.5-5.6,3.5-9.2c0-2.8-0.7-5.4-2.1-7.7c-1.3-2.2-3.3-3.9-5.7-4.9c-2.4-0.9-5.8-1.4-10.4-1.4h-22.7v51.2L955,176.9
		L955,176.9z"/>
</g>
</svg>
