<?xml version="1.0" encoding="utf-8"?>
<!-- Generator: Adobe Illustrator 22.1.0, SVG Export Plug-In . SVG Version: 6.00 Build 0)  -->
<svg version="1.1" id="Layer_1" xmlns="http://www.w3.org/2000/svg" xmlns:xlink="http://www.w3.org/1999/xlink" x="0px" y="0px"
	 viewBox="0 0 400 122" style="enable-background:new 0 0 400 122;" xml:space="preserve">
<style type="text/css">
	.st0{fill:#010101;}
</style>
<g>
	<path class="st0" d="M3.4,54.3l7.1-0.6c0.3,2.8,1.1,5.1,2.3,7c1.2,1.8,3.1,3.3,5.7,4.4c2.6,1.1,5.5,1.7,8.7,1.7
		c2.9,0,5.4-0.4,7.6-1.3c2.2-0.8,3.8-2,4.9-3.5c1.1-1.5,1.6-3.1,1.6-4.8c0-1.8-0.5-3.3-1.5-4.6c-1-1.3-2.7-2.4-5.1-3.3
		c-1.5-0.6-4.9-1.5-10.1-2.8c-5.2-1.2-8.8-2.4-10.9-3.5c-2.7-1.4-4.7-3.2-6-5.3c-1.3-2.1-2-4.4-2-7c0-2.9,0.8-5.5,2.4-8
		c1.6-2.5,4-4.4,7.1-5.6c3.1-1.3,6.6-1.9,10.4-1.9c4.2,0,7.9,0.7,11.1,2c3.2,1.3,5.7,3.3,7.4,6c1.7,2.6,2.6,5.6,2.8,8.9l-7.2,0.5
		c-0.4-3.6-1.7-6.3-3.9-8.1c-2.2-1.8-5.5-2.7-9.9-2.7c-4.5,0-7.8,0.8-9.9,2.5c-2.1,1.7-3.1,3.7-3.1,6c0,2,0.7,3.7,2.2,5
		c1.4,1.3,5.2,2.7,11.3,4c6.1,1.4,10.3,2.6,12.5,3.6c3.3,1.5,5.7,3.4,7.3,5.8c1.6,2.3,2.4,5,2.4,8c0,3-0.9,5.8-2.6,8.5
		c-1.7,2.7-4.2,4.7-7.4,6.2c-3.2,1.5-6.9,2.2-10.9,2.2c-5.1,0-9.4-0.7-12.9-2.2c-3.5-1.5-6.2-3.7-8.1-6.7C4.5,61.4,3.5,58,3.4,54.3z
		"/>
	<path class="st0" d="M60.4,72.4V15.9h40.9v6.7H67.8v17.3h31.3v6.6H67.8v19.2h34.7v6.7H60.4z"/>
	<path class="st0" d="M114.2,72.4V15.9h7.5v28l28.1-28h10.1l-23.7,22.9l24.8,33.6H151l-20.1-28.6l-9.3,9v19.6H114.2z"/>
	<path class="st0" d="M166.4,44.9c0-9.4,2.5-16.7,7.6-22c5-5.3,11.5-8,19.5-8c5.2,0,9.9,1.2,14.1,3.7c4.2,2.5,7.4,6,9.6,10.4
		c2.2,4.5,3.3,9.5,3.3,15.2c0,5.7-1.2,10.9-3.5,15.4c-2.3,4.5-5.6,8-9.8,10.3c-4.2,2.3-8.8,3.5-13.7,3.5c-5.3,0-10.1-1.3-14.3-3.9
		c-4.2-2.6-7.4-6.1-9.5-10.5C167.5,54.6,166.4,49.9,166.4,44.9z M174.2,45c0,6.8,1.8,12.2,5.5,16.1c3.7,3.9,8.3,5.9,13.8,5.9
		c5.6,0,10.3-2,13.9-5.9c3.6-4,5.5-9.6,5.5-16.9c0-4.6-0.8-8.6-2.3-12.1c-1.6-3.4-3.8-6.1-6.8-8c-3-1.9-6.4-2.8-10.1-2.8
		c-5.3,0-9.9,1.8-13.7,5.5C176.1,30.4,174.2,36.5,174.2,45z"/>
	<path class="st0" d="M231.7,72.4V15.9h7.7L269,60.3V15.9h7.2v56.5h-7.7L238.8,28v44.4H231.7z"/>
	<path class="st0" d="M290.3,72.4V15.9h19.5c4.4,0,7.8,0.3,10.1,0.8c3.2,0.7,6,2.1,8.3,4c3,2.5,5.2,5.7,6.7,9.7
		c1.5,3.9,2.2,8.4,2.2,13.4c0,4.3-0.5,8.1-1.5,11.4c-1,3.3-2.3,6.1-3.9,8.2c-1.6,2.2-3.3,3.9-5.1,5.1c-1.9,1.2-4.1,2.2-6.7,2.8
		c-2.6,0.6-5.7,1-9.1,1H290.3z M297.8,65.8h12.1c3.7,0,6.7-0.3,8.8-1c2.1-0.7,3.8-1.7,5.1-2.9c1.8-1.8,3.2-4.2,4.1-7.2
		c1-3,1.5-6.6,1.5-10.9c0-5.9-1-10.5-2.9-13.6c-1.9-3.2-4.3-5.3-7.1-6.4c-2-0.8-5.2-1.2-9.7-1.2h-11.9V65.8z"/>
	<path class="st0" d="M342.7,72.4l21.7-56.5h8.1l23.1,56.5h-8.5l-6.6-17.1h-23.6l-6.2,17.1H342.7z M359.1,49.2h19.2l-5.9-15.7
		c-1.8-4.8-3.1-8.7-4-11.7c-0.7,3.6-1.7,7.2-3,10.8L359.1,49.2z"/>
</g>
<g>
	<path class="st0" d="M13,107.3V90.5H6.7v-2.3h15.1v2.3h-6.3v16.9H13z"/>
	<path class="st0" d="M25.1,107.3V88.2h2.5v7.8h9.9v-7.8h2.5v19.1h-2.5v-9h-9.9v9H25.1z"/>
	<path class="st0" d="M44.9,107.3V88.2h13.8v2.3H47.4v5.9H58v2.2H47.4v6.5h11.7v2.3H44.9z"/>
	<path class="st0" d="M83.6,88.2h2.5v11c0,1.9-0.2,3.4-0.7,4.6c-0.4,1.1-1.2,2-2.4,2.8s-2.6,1.1-4.5,1.1c-1.8,0-3.3-0.3-4.4-0.9
		c-1.1-0.6-2-1.5-2.4-2.7c-0.5-1.2-0.7-2.8-0.7-4.8v-11h2.5v11c0,1.7,0.2,2.9,0.5,3.7c0.3,0.8,0.8,1.4,1.6,1.8
		c0.8,0.4,1.7,0.6,2.8,0.6c1.9,0,3.2-0.4,4-1.3c0.8-0.8,1.2-2.5,1.2-4.9V88.2z"/>
	<path class="st0" d="M90.8,107.3V88.2h2.5v9.5l9.5-9.5h3.4l-8,7.7l8.4,11.4h-3.3l-6.8-9.7l-3.1,3v6.6H90.8z"/>
	<path class="st0" d="M108.8,90.7V88h2.5v2.2c0,1.2-0.1,2-0.4,2.5c-0.4,0.7-1,1.2-1.7,1.6l-0.6-0.9c0.5-0.2,0.8-0.5,1-0.9
		c0.2-0.4,0.4-1,0.4-1.7H108.8z"/>
	<path class="st0" d="M114.9,101.2l2.4-0.2c0.1,1,0.4,1.7,0.8,2.4c0.4,0.6,1.1,1.1,1.9,1.5c0.9,0.4,1.8,0.6,2.9,0.6
		c1,0,1.8-0.1,2.6-0.4c0.7-0.3,1.3-0.7,1.6-1.2c0.4-0.5,0.5-1,0.5-1.6c0-0.6-0.2-1.1-0.5-1.6c-0.3-0.4-0.9-0.8-1.7-1.1
		c-0.5-0.2-1.6-0.5-3.4-0.9c-1.8-0.4-3-0.8-3.7-1.2c-0.9-0.5-1.6-1.1-2-1.8c-0.4-0.7-0.7-1.5-0.7-2.4c0-1,0.3-1.9,0.8-2.7
		c0.5-0.8,1.3-1.5,2.4-1.9c1.1-0.4,2.2-0.7,3.5-0.7c1.4,0,2.7,0.2,3.7,0.7c1.1,0.5,1.9,1.1,2.5,2c0.6,0.9,0.9,1.9,0.9,3l-2.4,0.2
		c-0.1-1.2-0.6-2.1-1.3-2.7c-0.8-0.6-1.9-0.9-3.3-0.9c-1.5,0-2.6,0.3-3.3,0.8c-0.7,0.6-1,1.2-1,2c0,0.7,0.2,1.3,0.7,1.7
		c0.5,0.4,1.8,0.9,3.8,1.4c2.1,0.5,3.5,0.9,4.2,1.2c1.1,0.5,1.9,1.2,2.5,1.9c0.5,0.8,0.8,1.7,0.8,2.7c0,1-0.3,2-0.9,2.9
		c-0.6,0.9-1.4,1.6-2.5,2.1c-1.1,0.5-2.3,0.8-3.7,0.8c-1.7,0-3.2-0.3-4.3-0.8s-2.1-1.3-2.8-2.3C115.2,103.6,114.9,102.5,114.9,101.2
		z"/>
	<path class="st0" d="M142,107.3V88.2h2.6l10,15v-15h2.4v19.1h-2.6l-10-15v15H142z"/>
	<path class="st0" d="M160.5,93.7c0-2.2,0.6-3.9,1.9-5c1-0.9,2.3-1.3,3.8-1.3c1.7,0,3,0.5,4.1,1.6c1.1,1.1,1.6,2.6,1.6,4.5
		c0,1.6-0.2,2.8-0.7,3.7c-0.5,0.9-1.1,1.6-2,2.1c-0.9,0.5-1.9,0.7-2.9,0.7c-1.7,0-3.1-0.5-4.1-1.6C161,97.3,160.5,95.7,160.5,93.7z
		 M162.6,93.7c0,1.5,0.3,2.7,1,3.5c0.7,0.8,1.5,1.2,2.6,1.2c1,0,1.9-0.4,2.5-1.2c0.7-0.8,1-2,1-3.5c0-1.5-0.3-2.6-1-3.4
		c-0.7-0.8-1.5-1.2-2.5-1.2c-1,0-1.9,0.4-2.6,1.1C163,91,162.6,92.1,162.6,93.7z"/>
	<path class="st0" d="M183.1,107.3h-2.3V92.4c-0.6,0.5-1.3,1.1-2.2,1.6c-0.9,0.5-1.7,0.9-2.5,1.2v-2.3c1.3-0.6,2.5-1.4,3.4-2.2
		s1.7-1.7,2.1-2.6h1.5V107.3z"/>
	<path class="st0" d="M201.9,107.3l-5.1-19.1h2.6l2.9,12.5c0.3,1.3,0.6,2.6,0.8,3.9c0.5-2,0.8-3.2,0.9-3.5l3.6-12.9h3l2.7,9.7
		c0.7,2.4,1.2,4.7,1.5,6.8c0.2-1.2,0.6-2.6,1-4.2l3-12.3h2.5l-5.2,19.1h-2.4l-4-14.6c-0.3-1.2-0.5-2-0.6-2.2
		c-0.2,0.9-0.4,1.6-0.6,2.2l-4.1,14.6H201.9z"/>
	<path class="st0" d="M221.2,107.3l7.3-19.1h2.7l7.8,19.1h-2.9l-2.2-5.8h-8l-2.1,5.8H221.2z M226.7,99.5h6.5l-2-5.3
		c-0.6-1.6-1.1-2.9-1.4-4c-0.2,1.2-0.6,2.4-1,3.6L226.7,99.5z"/>
	<path class="st0" d="M244.5,107.3V90.5h-6.3v-2.3h15.1v2.3h-6.3v16.9H244.5z"/>
	<path class="st0" d="M270.1,100.6l2.5,0.6c-0.5,2.1-1.5,3.7-2.9,4.8c-1.4,1.1-3.1,1.6-5.1,1.6c-2.1,0-3.7-0.4-5-1.3
		c-1.3-0.8-2.3-2.1-2.9-3.6c-0.7-1.6-1-3.3-1-5.1c0-2,0.4-3.7,1.1-5.2c0.8-1.5,1.8-2.6,3.2-3.4s2.9-1.2,4.6-1.2
		c1.9,0,3.5,0.5,4.8,1.5c1.3,1,2.2,2.3,2.7,4.1l-2.5,0.6c-0.4-1.4-1.1-2.4-1.9-3c-0.8-0.6-1.9-1-3.2-1c-1.5,0-2.7,0.4-3.7,1.1
		c-1,0.7-1.7,1.6-2.1,2.8c-0.4,1.2-0.6,2.4-0.6,3.7c0,1.6,0.2,3,0.7,4.3c0.5,1.2,1.2,2.1,2.2,2.7c1,0.6,2.1,0.9,3.2,0.9
		c1.4,0,2.6-0.4,3.6-1.2C269.1,103.4,269.8,102.2,270.1,100.6z"/>
	<path class="st0" d="M276.4,107.3V88.2h2.5v7.8h9.9v-7.8h2.5v19.1h-2.5v-9h-9.9v9H276.4z"/>
	<path class="st0" d="M304,107.3V88.2h7.2c1.5,0,2.6,0.2,3.5,0.6c0.9,0.4,1.6,1,2.1,1.8c0.5,0.8,0.7,1.6,0.7,2.5
		c0,0.8-0.2,1.6-0.7,2.3c-0.4,0.7-1.1,1.3-2,1.7c1.2,0.3,2,0.9,2.7,1.7c0.6,0.8,0.9,1.8,0.9,2.9c0,0.9-0.2,1.7-0.6,2.5
		c-0.4,0.8-0.8,1.4-1.4,1.8c-0.6,0.4-1.3,0.7-2.1,0.9c-0.8,0.2-1.9,0.3-3.1,0.3H304z M306.5,96.2h4.1c1.1,0,1.9-0.1,2.4-0.2
		c0.6-0.2,1.1-0.5,1.5-1c0.3-0.4,0.5-1,0.5-1.7c0-0.6-0.2-1.2-0.5-1.7c-0.3-0.5-0.7-0.8-1.3-1c-0.6-0.2-1.5-0.3-2.9-0.3h-3.8V96.2z
		 M306.5,105.1h4.8c0.8,0,1.4,0,1.7-0.1c0.6-0.1,1.1-0.3,1.5-0.5c0.4-0.2,0.7-0.6,1-1.1c0.3-0.5,0.4-1,0.4-1.6
		c0-0.7-0.2-1.3-0.5-1.9c-0.4-0.5-0.9-0.9-1.5-1.1c-0.6-0.2-1.6-0.3-2.8-0.3h-4.4V105.1z"/>
	<path class="st0" d="M322.5,107.3V88.2h8.5c1.7,0,3,0.2,3.9,0.5c0.9,0.3,1.6,0.9,2.1,1.8c0.5,0.9,0.8,1.8,0.8,2.9
		c0,1.4-0.4,2.5-1.3,3.4c-0.9,0.9-2.2,1.5-4.1,1.8c0.7,0.3,1.2,0.6,1.5,1c0.7,0.7,1.4,1.5,2.1,2.5l3.3,5.2h-3.2l-2.5-4
		c-0.7-1.1-1.3-2-1.8-2.6c-0.5-0.6-0.9-1-1.3-1.3c-0.4-0.2-0.8-0.4-1.2-0.5c-0.3-0.1-0.8-0.1-1.4-0.1H325v8.5H322.5z M325,96.6h5.4
		c1.2,0,2.1-0.1,2.7-0.4c0.7-0.2,1.1-0.6,1.5-1.1c0.3-0.5,0.5-1.1,0.5-1.7c0-0.9-0.3-1.6-1-2.2c-0.7-0.6-1.7-0.9-3.1-0.9h-6V96.6z"
		/>
	<path class="st0" d="M340.1,107.3l7.3-19.1h2.7l7.8,19.1h-2.9l-2.2-5.8h-8l-2.1,5.8H340.1z M345.6,99.5h6.5l-2-5.3
		c-0.6-1.6-1.1-2.9-1.4-4c-0.2,1.2-0.6,2.4-1,3.6L345.6,99.5z"/>
	<path class="st0" d="M360.5,107.3V88.2h2.6l10,15v-15h2.4v19.1H373l-10-15v15H360.5z"/>
	<path class="st0" d="M380.4,107.3V88.2h6.6c1.5,0,2.6,0.1,3.4,0.3c1.1,0.3,2,0.7,2.8,1.4c1,0.9,1.8,1.9,2.3,3.3
		c0.5,1.3,0.7,2.8,0.7,4.5c0,1.5-0.2,2.7-0.5,3.9c-0.3,1.1-0.8,2-1.3,2.8c-0.5,0.7-1.1,1.3-1.7,1.7c-0.6,0.4-1.4,0.7-2.3,1
		c-0.9,0.2-1.9,0.3-3.1,0.3H380.4z M382.9,105.1h4.1c1.3,0,2.2-0.1,3-0.4c0.7-0.2,1.3-0.6,1.7-1c0.6-0.6,1.1-1.4,1.4-2.4
		c0.3-1,0.5-2.2,0.5-3.7c0-2-0.3-3.5-1-4.6c-0.7-1.1-1.5-1.8-2.4-2.2c-0.7-0.3-1.8-0.4-3.3-0.4h-4V105.1z"/>
</g>
</svg>
