<?xml version="1.0" encoding="utf-8"?>
<!-- Generator: Adobe Illustrator 22.1.0, SVG Export Plug-In . SVG Version: 6.00 Build 0)  -->
<svg version="1.1" id="Layer_1" xmlns="http://www.w3.org/2000/svg" xmlns:xlink="http://www.w3.org/1999/xlink" x="0px" y="0px"
	 viewBox="0 0 400 200" style="enable-background:new 0 0 400 200;" xml:space="preserve">
<style type="text/css">
	.st0{fill:#010101;}
</style>
<g id="layer1" transform="translate(210,-414.59367)">
	<path id="path5" class="st0" d="M126.9,534.2c-3.3-0.8-4.1-2.5-4.5-5.6c-0.8-5.3-0.8-18.4,0-24c0.4-2.9,2.1-4.5,4.5-5.3
		c2.9-0.8,28.9-1.2,31.8,0c2.5,0.8,3.3,2.5,3.7,4.9c1.2,5.3,1.2,18.8,0,24c-0.4,2.5-1.2,3.7-3.7,4.9
		C156.4,535,130.6,535,126.9,534.2L126.9,534.2z M167.3,481.2c-7.8-1.6-37.6-2.1-49.4,0c-8.9,1.6-15.9,8.1-18,16.3
		c-1.6,9.3-1.6,30.2,0,38.8c1.6,7.8,8.1,14.7,18,16.3c10.2,2.1,40.3,1.6,49.8-0.4c11-2.5,15.5-10.6,16.7-15.9
		c1.6-8.1,1.6-28.9,0-38.8C182.4,488.9,175,482.9,167.3,481.2L167.3,481.2z M64.9,481.7h22.5v70.6H64.9V481.7z M29.1,525.3
		c3.7,0.8,4.5,3.7,4.5,6.2c0,2.5-0.4,5.3-4.5,5.6c-4.5,0.8-19.6,0.8-25.2,0c-2.5-0.4-5.3-0.4-6.2-4.9v-1.2h-22.5
		c0,0.4,0,1.6,0.4,3.3c0.8,9.3,4.5,15.9,15.1,18c8.5,1.6,40.7,2.1,50.6,0c11.4-2.5,14.3-12.6,14.3-21.7c0-10.2-3.7-17.1-12.6-20
		c-2.5-0.8-8.1-1.2-10.6-1.2c-2.1,0-26.1-0.8-31.4-1.6c-3.3-0.4-4.1-2.5-4.1-5.3c0-2.9,0.4-4.9,4.5-5.6c4.9-0.8,24-0.8,26.1,0
		c2.5,0.8,3.3,2.5,3.3,4.5v1.6h22.5c0-1.6-0.4-2.9-0.4-4.1c-1.2-11-7.4-17.1-18.4-18c-11-1.2-36.3-0.8-44,0.4
		c-7.4,1.6-14.7,6.2-14.7,21.2c0,12.2,5.6,18.4,15.5,20.4c2.9,0.4,11,0.8,12.2,0.8C6.2,524,27.5,524.9,29.1,525.3L29.1,525.3z
		 M-59.5,524.9h-24.8l10.6-28.1h3.7L-59.5,524.9z M-54.5,539.5l4.9,12.6h24l-30.2-71h-32.6l-29.8,71h24l4.9-13L-54.5,539.5
		L-54.5,539.5z M-182.6,529c0.4,4.1,2.5,4.9,4.5,5.3c3.3,0.8,26.5,0.8,30.6,0c2.9-0.4,4.9-2.5,5.3-4.9c0-1.2,0.4-3.3,0.4-4.1h23.3
		c0,1.6,0,5.6-0.4,9.3c-1.2,8.5-6.2,15.5-16.7,18c-7.4,1.6-42.8,1.6-51,0c-8.5-2.1-15.9-7.4-18-16.3c-1.6-8.1-1.6-29.4,0-38.4
		c1.2-6.6,7.4-14.3,17.5-16.3c9.3-1.6,42.4-2.1,51.4,0c11.8,2.9,15.5,13.4,15.9,17.1c0.4,4.1,0.4,7,0.4,8.5h-23.3
		c0-1.6,0.4-6.2-3.7-7.4c-2.5-0.8-25.2-0.8-31-0.4c-2.9,0.4-4.5,1.6-4.9,4.5C-183.4,509.8-183.4,523.6-182.6,529L-182.6,529z"/>
</g>
</svg>
