<?xml version="1.0" encoding="utf-8"?>
<!-- Generator: Adobe Illustrator 22.1.0, SVG Export Plug-In . SVG Version: 6.00 Build 0)  -->
<svg version="1.1" id="Layer_1" xmlns="http://www.w3.org/2000/svg" xmlns:xlink="http://www.w3.org/1999/xlink" x="0px" y="0px"
	 viewBox="0 0 400 200" style="enable-background:new 0 0 400 200;" xml:space="preserve">
<style type="text/css">
	.st0{fill:#010101;}
</style>
<path class="st0" d="M336.2,104.2l5.7-16.7l5.5,16.7H336.2 M277.2,97.8V82.4h2.7c4.4,0,7.4,2.9,7.4,8c0,2.9-2.2,7.3-6.9,7.3
	L277.2,97.8L277.2,97.8z M248.4,104.2l5.7-16.7l5.5,16.7H248.4z M396.2,81.7h-16.9v0.7h2.8v26.4l-17.2-27.1h-7.4v0.7h2.8v33.4h-4.7
	l-11.9-35.6l-12.3,35.6H327V82.4h2.5v-0.7h-6.7l-9.5,27.8l-9.9-27.8h-6.8v0.7h2.8v33.4h-5.1c-1.8,0-3.2-1.6-3.2-4v-5.2
	c0-4.3-1.5-7.7-6.3-8.4c4-0.5,6.9-4.1,6.9-7.9c0-4.8-3.6-8.6-10.7-8.6h-10.6v0.7h2.8v33.4h-5.3l-11.9-35.6l-12.3,35.6h-2.3v0.7h6.4
	v-0.7h-3.2l3.7-10.8h11.7l3.6,10.8H259v0.7h22.5v-0.7h-4.3V98.5h3.2c4.3,0,6.6,1.8,6.6,6.1v3c0,7.2,4.6,8.9,7.1,8.9h9.2v-0.7h-3
	V84.9l11.7,32l11.1-33v31.9h-2.8v0.7h15.3v-0.7h-3.2L336,105h11.7l3.6,10.8h-4.4v0.7h17v-0.7h-2.8V83.6l21.7,34.1V82.4h6.5v33.4
	h-2.8v0.7h9.6v-0.7h-2.8l0-33.4l2.8,0L396.2,81.7L396.2,81.7z M17.8,82.4c5.9,0,7.4,3.4,7.4,8.3h0.7v-9.1H2.6v0.7h3v33.4h-3v0.7
	h23.3v-10h-0.7c0,5.2-1.3,9.3-9.8,9.3H9.7V99.3h2.5c3.8,0,5.7,2,5.7,5.3h0.7V93.2h-0.7c0,3.4-1.8,5.3-5.7,5.3H9.7V82.4H17.8
	 M169.6,116.7c-9.3,0-9.7-12.1-9.7-17.5c0-5.4,0.6-17.5,9.7-17.5c9.1,0,9.8,12.1,9.8,17.5C179.4,104.5,178.9,116.7,169.6,116.7
	 M169.6,80.8c-9.1,0-15.1,10.1-15.1,18.3c0,8.9,6.5,18.2,15.1,18.2s15.1-8.8,15.1-18.2C184.7,91,178.2,80.8,169.6,80.8L169.6,80.8z
	 M101,116.7c-9.3,0-9.7-12.1-9.7-17.5c0-5.4,0.6-17.5,9.7-17.5c9.1,0,9.8,12.1,9.8,17.5C110.7,104.5,110.2,116.7,101,116.7
	 M101,80.8c-9.1,0-15.1,10.1-15.1,18.3c0,8.9,6.5,18.2,15.1,18.2c8.6,0,15.1-8.8,15.1-18.2C116.1,91,109.6,80.8,101,80.8L101,80.8z
	 M124.2,97.8V82.4h2.7c4.4,0,7.4,2.9,7.4,8c0,2.9-2.2,7.3-6.9,7.3L124.2,97.8 M143.7,82.4l2.8,0v33.4h-5.1c-1.8,0-3.2-1.6-3.2-4
	v-5.2c0-4.3-1.5-7.7-6.3-8.4c4-0.5,6.9-4.1,6.9-7.9c0-4.8-3.6-8.6-10.7-8.6h-10.6v0.7h2.8v33.4h-2.8v0.7h11.1v-0.7h-4.3V98.5h3.2
	c4.3,0,6.6,1.7,6.6,6.1v3c0,7.3,4.6,8.9,7.1,8.9h12.3v-0.7h-2.8V82.4l2.8,0v-0.7h-9.6L143.7,82.4L143.7,82.4z M70.9,101.3h-2V82.4h2
	c5,0,8.2,2.6,8.2,9.6C79.1,98.2,76.6,101.3,70.9,101.3 M64.8,115.8h-6.6V82.4h6.6V115.8L64.8,115.8z M71.8,81.7H54.1l-9.5,27.8
	l-9.9-27.8h-6.8v0.7h2.8v33.4h-2.8v0.7h6.6v-0.7h-3V84.9l11.7,32l11.1-33v31.9h-2.8v0.7h20.2v-0.7h-2.8v-13.7h3
	c8,0,11.8-4.4,11.8-10.1C83.6,86.5,80.3,81.7,71.8,81.7L71.8,81.7z M242.2,94c0,0.2,0.1,0.5,0.1,0.7c0,2.3-2.5,3.5-2.5,3.5h-46.4
	c0,0-2.5-1.2-2.5-3.5c0-0.2,0-0.4,0.1-0.7h17.2l1.7,2l0.4-2h11.7l1.5,1.7l1.5-1.7H242.2 M219.8,87.9l1.4,4.2h-10.9l0.2-4.2H219.8
	 M247.3,88c0,0.2,0.1,0.5,0.1,0.7c0,2.3-2.5,3.5-2.5,3.5h-18.4L230,88L247.3,88 M203,88l3.5,4.2h-18.4c0,0-2.5-1.2-2.5-3.5
	c0-0.2,0-0.4,0.1-0.7L203,88 M252.4,81.9c0,0.2,0.1,0.5,0.1,0.7c0,2.3-2.5,3.5-2.5,3.5h-18.4l3.5-4.2L252.4,81.9 M222.5,85.1
	c-1,0-1.5,0.1-1.9,1.2h-10.3l0-0.1c0-2.1,1.1-4.1,1.1-4.2c0.1-0.1,0.2-0.2,0.3-0.2l9.6,0c1,0,3.3,1.4,3.5,3.4H222.5 M183.1,86.1
	c0,0-2.5-1.2-2.5-3.5c0-0.2,0-0.4,0.1-0.7h17.2l3.5,4.2L183.1,86.1 M220.4,105.9l1.1,3.1h-3.1l1.1-3.1H220.4 M222.4,111.9l0.2,0.7
	h-1.3v0.7h4.6v-0.7h-1.3l-0.3-0.7h2.7c0,0.1,0.1,0.3,0.1,0.7c0,1.8-1,3.1-2.6,3.9l-15.8,0c-2.2-1.1-2.6-2.9-2.6-3.9
	c0-0.4,0.1-0.6,0.1-0.7h1.2c0.8,1,2,1.7,3.4,1.7c1.6,0,1.9-1,2.8-1c0.2,0,0.4,0.2,0.4,0.7h0.7v-1.4h2.1l-0.3,0.7h-1v0.7h2.6v-0.7h-1
	l0.3-0.7L222.4,111.9 M210.8,101.3c0.6,0,1,0.2,1.3,0.3c0.2,0.1,0.5,0.3,0.7,0.3c0.3,0,0.5-0.1,0.6-0.6h0.6v3.1h5.3l1.2-3.4l1.2,3.4
	h13c2.2-1.1,2.6-2.8,2.6-3.8c0-0.4,0-0.7-0.1-0.8h-41.3c0,0.2-0.1,0.4,0,0.6c0,1,0.3,2.9,2.6,4h7.9
	C207.1,102.8,208.6,101.3,210.8,101.3 M201,105.9c0,0-0.1,0.3-0.1,0.7c0,1,0.3,2.8,2.5,3.9c1.3,0,1,0,2.9,0c-0.5-1-0.7-2.1-0.7-3
	c0-0.5,0.1-1,0.2-1.5L201,105.9 M217.9,110.4l0.3-0.8h3.5l0.3,0.8H217.9 M222.2,105.9l9.9,0c0,0,0.1,0.3,0.1,0.6
	c0,1-0.3,2.8-2.6,3.9h-5.8L222.2,105.9 M218.8,105.9l-11,0c0,0.5-0.1,1-0.1,1.5c0,0.9,0.1,2,0.3,3l4.7,0v-1.7l-1.1,0v-0.7h3.7v0.7
	l-0.9,0v1.7h2.7L218.8,105.9"/>
</svg>
