<svg width="32" height="32" viewBox="0 0 32 32" fill="none" xmlns="http://www.w3.org/2000/svg">
<path fill-rule="evenodd" clip-rule="evenodd" d="M25.3101 28.7835H5.80109C4.44022 28.7835 3.17447 28.2386 2.2376 27.2511C1.30072 26.2635 0.824289 24.972 0.896288 23.6111L1.60116 9.28427C2.14871 7.11631 4.08379 5.56701 6.34774 5.56701H25.6265C27.9482 5.56701 29.9064 7.1732 30.4042 9.41405L31.1037 23.6129C31.1757 24.9729 30.6984 26.2653 29.7615 27.2519C28.8247 28.2395 26.67 28.7835 25.3101 28.7835ZM25.4069 2.88884C27.822 2.88884 29.8202 4.63725 30.2246 6.95987C29.1589 5.56523 27.4949 4.67814 25.6265 4.67814H6.34774C4.50511 4.67814 2.85003 5.55368 1.77983 6.92965C2.19582 4.62214 4.18778 2.88884 6.59307 2.88884H25.4069ZM31.2006 7.51542C31.0477 4.42214 28.5029 1.99996 25.4069 1.99996H6.59307C3.49802 1.99996 0.952287 4.42214 0.798512 7.51542L0.00830435 23.5667C-0.0761385 25.1702 0.485629 26.6964 1.59228 27.8626C2.69892 29.0297 4.19312 29.6723 5.80109 29.6723H26.1989C27.806 29.6723 29.2993 29.0297 30.406 27.8635C31.5126 26.6982 32.0762 25.172 31.9917 23.5676L31.2006 7.51542Z" fill="#3384B0"/>
<path fill-rule="evenodd" clip-rule="evenodd" d="M13.363 23.9995C13.2813 24.2226 13.1177 24.4004 12.9017 24.4999C12.6857 24.6021 12.4413 24.611 12.2146 24.5284L10.9595 24.0635C10.7346 23.9808 10.556 23.8155 10.4564 23.5986C10.3569 23.3826 10.3471 23.1391 10.4306 22.9142L11.2031 20.82L14.139 21.9035L13.363 23.9995ZM14.1719 9.06732L19.5211 11.0424L14.4901 21.0858L11.468 19.9702L14.1719 9.06732ZM20.538 10.9962C20.5949 10.8833 20.6002 10.7517 20.554 10.6344C20.5078 10.5162 20.4136 10.4246 20.2945 10.3811L14.0137 8.062C13.8955 8.01756 13.7648 8.02645 13.6519 8.08689C13.5399 8.14555 13.459 8.24866 13.4288 8.37222L10.516 20.116L9.59688 22.6066C9.43155 23.0546 9.45022 23.5382 9.64843 23.971C9.84754 24.403 10.2049 24.7319 10.652 24.8972L11.9071 25.3612C12.1088 25.4359 12.3186 25.4732 12.5275 25.4732C12.7826 25.4732 13.0368 25.4181 13.2759 25.3079C13.707 25.1079 14.0341 24.7515 14.1968 24.307L15.1221 21.8084L20.538 10.9962Z" fill="#3384B0"/>
<path fill-rule="evenodd" clip-rule="evenodd" d="M7.5207 20.7486H6.18117C6.05762 20.7486 5.95628 20.6472 5.95628 20.5228V18.9584H7.74558V20.5228C7.74558 20.6472 7.64514 20.7486 7.5207 20.7486ZM6.18117 9.58433H7.5207C7.64514 9.58433 7.74558 9.68566 7.74558 9.80922V18.0695H5.95628V9.80922C5.95628 9.68566 6.05762 9.58433 6.18117 9.58433ZM7.5207 8.69546H6.18117C5.56696 8.69546 5.06741 9.19589 5.06741 9.80922V20.5228C5.06741 21.137 5.56696 21.6374 6.18117 21.6374H7.5207C8.13491 21.6374 8.63446 21.137 8.63446 20.5228V9.80922C8.63446 9.19589 8.13491 8.69546 7.5207 8.69546Z" fill="#3384B0"/>
<path fill-rule="evenodd" clip-rule="evenodd" d="M22.6424 26.1053C19.1891 26.1053 18.79 24.6067 18.79 23.4805C18.79 21.3561 20.518 19.629 22.6424 19.629C24.7668 19.629 26.4939 21.3561 26.4939 23.4805C26.4939 24.6067 26.0948 26.1053 22.6424 26.1053ZM21.5313 18.7401L22.118 16.2806H23.2575L23.7704 18.7401H21.5313ZM24.749 19.2557C24.757 19.2023 24.7624 19.1481 24.7517 19.0939L24.0539 15.7464C24.0113 15.5393 23.8291 15.3917 23.6193 15.3917H21.7669C21.5606 15.3917 21.382 15.5331 21.334 15.7331L20.5358 19.0815C20.5224 19.1392 20.5251 19.1988 20.534 19.2566C18.9803 20.0361 17.9012 21.6272 17.9012 23.4805C17.9012 25.084 18.7234 26.9942 22.6424 26.9942C26.5606 26.9942 27.3828 25.084 27.3828 23.4805C27.3828 21.6272 26.3037 20.0352 24.749 19.2557Z" fill="#3384B0"/>
</svg>
