<svg width="32" height="32" viewBox="0 0 32 32" fill="none" xmlns="http://www.w3.org/2000/svg">
<path d="M16.3279 9.11275L17.986 12.835C18.1323 13.141 18.4249 13.3959 18.7663 13.3959L22.6677 13.9058C23.448 14.0078 23.7894 15.0786 23.1554 15.6905L20.3269 18.444C20.083 18.6989 19.9855 19.0558 20.0343 19.3618L20.7658 23.39C20.9121 24.2568 20.083 24.9197 19.3515 24.4608L15.9378 22.4722C15.6452 22.3192 15.3038 22.3192 15.0112 22.4722L11.5487 24.5118C10.8477 24.9027 10.0123 24.3102 10.1156 23.5421L10.866 19.4128C10.9086 19.1005 10.8393 18.7881 10.6579 18.5783L7.69607 15.6905C7.11086 15.0786 7.40347 14.0588 8.23252 13.9058L12.1339 13.3959C12.4753 13.3449 12.7679 13.141 12.9142 12.835L14.5723 9.11275C14.9137 8.34789 15.9866 8.34789 16.3279 9.11275ZM17.1108 13.2249L15.4501 9.49707L13.7786 13.2484C13.5177 13.794 13.0219 14.1774 12.4237 14.3147L12.2581 14.346L8.40637 14.8481C8.35745 14.8571 8.3298 14.9193 8.34503 14.9698L8.36483 15.0044L11.1881 17.76C11.6567 18.152 11.8707 18.7561 11.827 19.4058L11.8087 19.584L11.0663 23.6638L11.0703 23.6771L11.0624 23.6862L14.5673 21.6231C15.0904 21.3496 15.6996 21.3268 16.2666 21.571L16.4201 21.6443L19.8489 23.642C19.8413 23.6344 19.8366 23.6246 19.8314 23.6031L19.0881 19.5126C18.9994 18.9559 19.1569 18.3642 19.5376 17.8945L19.6586 17.7574L22.49 15.0011C22.5372 14.9555 22.5298 14.8882 22.5356 14.8645L22.5436 14.8559L18.6713 14.3492L18.6126 14.347C18.005 14.2911 17.4901 13.907 17.1832 13.3639L17.1108 13.2249Z" fill="#FF5756"/>
<path d="M25.0577 11.4427C24.77 11.4427 24.5365 11.1625 24.5365 10.8173V8.94112C24.5365 8.5959 24.77 8.31572 25.0577 8.31572C25.3454 8.31572 25.5788 8.5959 25.5788 8.94112V10.8173C25.5788 11.1625 25.3454 11.4427 25.0577 11.4427Z" fill="#FF5756"/>
<path d="M25.0577 5.19877C24.77 5.19877 24.5365 4.91859 24.5365 4.57337V2.69716C24.5365 2.35194 24.77 2.07176 25.0577 2.07176C25.3454 2.07176 25.5788 2.35194 25.5788 2.69716V4.57337C25.5788 4.91859 25.3454 5.19877 25.0577 5.19877Z" fill="#FF5756"/>
<path d="M22.7133 7.43974H20.8371C20.4918 7.43974 20.2117 7.20625 20.2117 6.91857C20.2117 6.63088 20.4918 6.3974 20.8371 6.3974H22.7133C23.0585 6.3974 23.3387 6.63088 23.3387 6.91857C23.3387 7.20625 23.0585 7.43974 22.7133 7.43974Z" fill="#FF5756"/>
<path d="M29.0514 7.43974H27.1752C26.83 7.43974 26.5498 7.20625 26.5498 6.91857C26.5498 6.63088 26.83 6.3974 27.1752 6.3974H29.0514C29.3966 6.3974 29.6768 6.63088 29.6768 6.91857C29.6768 7.20625 29.3966 7.43974 29.0514 7.43974Z" fill="#FF5756"/>
<path d="M25.1398 7.49191C24.9772 7.49191 24.8146 7.42268 24.6958 7.3094C24.5832 7.18983 24.5144 7.0262 24.5144 6.86257C24.5144 6.69895 24.5832 6.53532 24.6958 6.41574C24.9334 6.18289 25.3462 6.18289 25.5838 6.41574C25.6964 6.53532 25.7652 6.69895 25.7652 6.86257C25.7652 7.0262 25.6964 7.18983 25.5838 7.3094C25.465 7.42268 25.3024 7.49191 25.1398 7.49191Z" fill="#FF5756"/>
<path d="M5.12697 20.5472C5.7746 20.5472 6.2996 20.0222 6.2996 19.3745C6.2996 18.7269 5.7746 18.2019 5.12697 18.2019C4.47935 18.2019 3.95435 18.7269 3.95435 19.3745C3.95435 20.0222 4.47935 20.5472 5.12697 20.5472Z" fill="#FF5756"/>
<path d="M23.8891 26.8012C24.5367 26.8012 25.0617 26.2762 25.0617 25.6285C25.0617 24.9809 24.5367 24.4559 23.8891 24.4559C23.2414 24.4559 22.7164 24.9809 22.7164 25.6285C22.7164 26.2762 23.2414 26.8012 23.8891 26.8012Z" fill="#FF5756"/>
<path d="M4.57143 24C4.80843 24 5 24.192 5 24.4286C5 24.6124 4.98062 24.7918 4.9438 24.9648C5.11276 25.4798 5.52098 25.8878 6.03653 26.0575C6.20886 26.0193 6.38793 26 6.57143 26C6.80843 26 7 26.192 7 26.4286L6.99406 26.4999C6.99797 26.5232 7 26.5471 7 26.5714C7 26.808 6.80843 27 6.57143 27C6.3876 27 6.20821 26.9806 6.03522 26.9438C5.52051 27.1127 5.11268 27.5205 4.94284 28.0356C4.98062 28.2082 5 28.3876 5 28.5714C5 28.808 4.80843 29 4.57143 29L4.50019 28.9941C4.4769 28.998 4.45298 29 4.42857 29C4.19157 29 4 28.808 4 28.5714C4 28.3879 4.01931 28.2089 4.056 28.0362C3.8878 27.521 3.47978 27.1128 2.96435 26.9428C2.79179 26.9806 2.6124 27 2.42857 27C2.19157 27 2 26.808 2 26.5714L2.00594 26.5001C2.00203 26.4768 2 26.4529 2 26.4286C2 26.192 2.19157 26 2.42857 26C2.61207 26 2.79114 26.0193 2.96385 26.056C3.47931 25.8877 3.88773 25.4793 4.05748 24.9634C4.01931 24.7911 4 24.6121 4 24.4286C4 24.192 4.19157 24 4.42857 24L4.49981 24.0059C4.5231 24.002 4.54702 24 4.57143 24ZM4.49984 25.9506L4.48581 25.9699C4.33428 26.1717 4.1538 26.3505 3.9506 26.5002C4.16031 26.6543 4.34581 26.8398 4.50027 27.0496C4.65422 26.8398 4.83978 26.6542 5.04955 26.4997C4.83983 26.3458 4.65431 26.1603 4.49984 25.9506Z" fill="#FF5756"/>
<path d="M9.57143 5C9.80843 5 10 5.192 10 5.42857C10 5.6124 9.98062 5.79179 9.9438 5.96478C10.1128 6.47978 10.521 6.8878 11.0365 7.05746C11.2089 7.01931 11.3879 7 11.5714 7C11.8084 7 12 7.192 12 7.42857L11.9941 7.49992C11.998 7.52318 12 7.54707 12 7.57143C12 7.808 11.8084 8 11.5714 8C11.3876 8 11.2082 7.98062 11.0352 7.9438C10.5205 8.11268 10.1127 8.52051 9.94284 9.03561C9.98062 9.20821 10 9.3876 10 9.57143C10 9.808 9.80843 10 9.57143 10L9.50019 9.99405C9.4769 9.99796 9.45298 10 9.42857 10C9.19157 10 9 9.808 9 9.57143C9 9.38793 9.01931 9.20886 9.056 9.03615C8.8878 8.52098 8.47978 8.11276 7.96435 7.94283C7.79179 7.98062 7.6124 8 7.42857 8C7.19157 8 7 7.808 7 7.57143L7.00594 7.50008C7.00203 7.47682 7 7.45293 7 7.42857C7 7.192 7.19157 7 7.42857 7C7.61207 7 7.79114 7.01931 7.96385 7.056C8.47931 6.88773 8.88773 6.47931 9.05748 5.96342C9.01931 5.79114 9 5.61207 9 5.42857C9 5.192 9.19157 5 9.42857 5L9.49981 5.00595C9.5231 5.00204 9.54702 5 9.57143 5ZM9.49984 6.9506L9.48581 6.9699C9.33428 7.17165 9.1538 7.35048 8.9506 7.50016C9.16031 7.65431 9.34581 7.83983 9.50027 8.04955C9.65422 7.83978 9.83978 7.65422 10.0496 7.49973C9.83983 7.34581 9.65431 7.16031 9.49984 6.9506Z" fill="#FF5756"/>
</svg>
