<svg width="28" height="28" viewBox="0 0 28 28" fill="none" xmlns="http://www.w3.org/2000/svg">
<rect width="28" height="28" fill="white"/>
<path d="M5.4475 24.7354C5.4475 24.7354 4.31319 26.9997 5.4475 26.9997H14.5219C14.5219 26.9997 14.5219 24.7354 13.3876 24.7354H9.98472" stroke="#C67F92" stroke-linecap="round" stroke-linejoin="round"/>
<path d="M11.1201 20.207C11.1201 20.207 12.8444 21.3392 11.4151 24.7357" stroke="#C67F92" stroke-linecap="round" stroke-linejoin="round"/>
<path d="M14.3809 25.8682H16.7913" stroke="#C67F92" stroke-linecap="round" stroke-linejoin="round"/>
<path d="M15.6568 21.3392L14.5225 22.4713C14.5225 22.4713 17.9254 24.7357 17.9254 27H20.194C20.194 27 23.5969 27 20.194 24.7357C20.9309 24.5924 21.6239 24.2791 22.2177 23.8207C22.8116 23.3622 23.2897 22.7715 23.6138 22.0956C23.938 21.4198 24.0991 20.6776 24.0845 19.9284C24.0698 19.1793 23.8797 18.444 23.5294 17.7812" stroke="#C67F92" stroke-linecap="round" stroke-linejoin="round"/>
<path d="M21.3285 16.8108C21.3285 16.8108 27 20.2073 27 15.6786C27 12.2821 22.4628 11.1499 22.4628 11.1499C22.4628 11.1499 21.3285 4.35693 16.7912 4.35693C16.7912 4.35693 15.6569 10.0178 19.0599 12.2821C18.7209 12.6604 18.4895 13.1224 18.3898 13.6201C18.29 14.1179 18.3256 14.6331 18.4927 15.1125C18.4927 15.1125 12.254 10.0178 5.44819 16.8108C0.312408 21.9369 5.21243 25.2862 5.21243 25.2862C5.21243 25.2862 3.17958 27.0003 2.04528 25.8681C-0.846648 22.9816 3.17958 22.4716 3.17958 22.4716" stroke="#C67F92" stroke-linecap="round" stroke-linejoin="round"/>
<path d="M20.1064 5.92239C20.1064 5.92239 20.194 4.35693 21.3283 4.35693C22.4626 4.35693 23.6901 7.01294 23.0764 11.3458" stroke="#C67F92" stroke-linecap="round" stroke-linejoin="round"/>
<path d="M19.0596 7.75293C19.8482 8.70461 20.2527 9.91578 20.1939 11.1494" stroke="#C67F92" stroke-linecap="round" stroke-linejoin="round"/>
<path d="M10.2111 1.69721C9.90923 1.42165 9.54789 1.21914 9.15503 1.10536C8.76218 0.991588 8.34835 0.969607 7.94562 1.04112C7.54289 1.11264 7.16205 1.27573 6.83262 1.51776C6.50318 1.75979 6.23399 2.07427 6.0459 2.43684C5.8578 2.07428 5.5886 1.7598 5.25917 1.51778C4.92973 1.27575 4.5489 1.11266 4.14617 1.04114C3.74344 0.969629 3.32962 0.991608 2.93676 1.10538C2.54391 1.21915 2.18257 1.42166 1.88073 1.69721C1.37428 2.21683 1.09044 2.91285 1.08936 3.63778C1.08828 4.36271 1.37004 5.05957 1.87493 5.58069C3.08711 6.9137 4.4122 8.1399 5.83546 9.24566C5.89511 9.29351 5.96935 9.31959 6.04587 9.31959C6.1224 9.31959 6.19663 9.29351 6.25629 9.24566C7.67953 8.13988 9.00462 6.91368 10.2168 5.58069C10.7217 5.05957 11.0035 4.36272 11.0024 3.63779C11.0013 2.91286 10.7175 2.21683 10.2111 1.69721V1.69721Z" stroke="#C67F92" stroke-linecap="round" stroke-linejoin="round"/>
</svg>
